# https://github.com/mikedh/trimesh
v 0.00607000 -0.02500000 0.04047000
v 0.00607000 -0.02500000 0.04047000
v 0.00607000 -0.02500000 0.04047000
v 0.00607000 0.02500000 0.04047000
v 0.00607000 0.02500000 0.04047000
v 0.00607000 0.02500000 0.04047000
v -0.04393000 0.02500000 0.04047000
v -0.04393000 0.02500000 0.04047000
v -0.04393000 0.02500000 0.04047000
v -0.04393000 -0.02500000 0.04047000
v -0.04393000 -0.02500000 0.04047000
v -0.04393000 -0.02500000 0.04047000
v -0.04393000 0.02500000 -0.00953000
v -0.04393000 0.02500000 -0.00953000
v -0.04393000 0.02500000 -0.00953000
v -0.04393000 -0.02500000 -0.00953000
v -0.04393000 -0.02500000 -0.00953000
v -0.04393000 -0.02500000 -0.00953000
v 0.00607000 0.02500000 -0.00953000
v 0.00607000 0.02500000 -0.00953000
v 0.00607000 0.02500000 -0.00953000
v 0.00607000 -0.02500000 -0.00953000
v 0.00607000 -0.02500000 -0.00953000
v 0.00607000 -0.02500000 -0.00953000
vn 0.00000000 0.00000000 1.00000000
vn 1.00000000 0.00000000 0.00000000
vn 0.00000000 -1.00000000 0.00000000
vn 1.00000000 0.00000000 0.00000000
vn 0.00000000 1.00000000 0.00000000
vn 0.00000000 0.00000000 1.00000000
vn 0.00000000 0.00000000 1.00000000
vn -1.00000000 0.00000000 0.00000000
vn 0.00000000 1.00000000 0.00000000
vn 0.00000000 -1.00000000 0.00000000
vn 0.00000000 0.00000000 1.00000000
vn -1.00000000 0.00000000 0.00000000
vn 0.00000000 0.00000000 -1.00000000
vn -1.00000000 0.00000000 0.00000000
vn 0.00000000 1.00000000 0.00000000
vn -1.00000000 0.00000000 0.00000000
vn 0.00000000 0.00000000 -1.00000000
vn 0.00000000 -1.00000000 0.00000000
vn 0.00000000 0.00000000 -1.00000000
vn 1.00000000 0.00000000 0.00000000
vn 0.00000000 1.00000000 0.00000000
vn 0.00000000 0.00000000 -1.00000000
vn 1.00000000 0.00000000 0.00000000
vn 0.00000000 -1.00000000 0.00000000
f 1//1 6//6 7//7
f 7//7 11//11 1//1
f 12//12 8//8 14//14
f 14//14 16//16 12//12
f 17//17 13//13 19//19
f 19//19 22//22 17//17
f 23//23 20//20 4//4
f 4//4 2//2 23//23
f 24//24 3//3 10//10
f 10//10 18//18 24//24
f 15//15 9//9 5//5
f 5//5 21//21 15//15

